{
    "asset" : {
        "generator" : "Khronos glTF Blender I/O v1.2.75",
        "version" : "2.0"
    },
    "scene" : 0,
    "scenes" : [
        {
            "name" : "Scene",
            "nodes" : [
                0
            ]
        }
    ],
    "nodes" : [
        {
            "mesh" : 0,
            "name" : "Drawer"
        }
    ],
    "materials" : [
        {
            "doubleSided" : true,
            "emissiveFactor" : [
                0,
                0,
                0
            ],
            "name" : "drawer",
            "pbrMetallicRoughness" : {
                "baseColorTexture" : {
                    "index" : 0,
                    "texCoord" : 0
                },
                "metallicFactor" : 0,
                "roughnessFactor" : 0.5
            }
        }
    ],
    "meshes" : [
        {
            "name" : "Drawer",
            "primitives" : [
                {
                    "attributes" : {
                        "POSITION" : 0,
                        "NORMAL" : 1,
                        "TEXCOORD_0" : 2,
                        "COLOR_0" : 3
                    },
                    "indices" : 4,
                    "material" : 0
                }
            ]
        }
    ],
    "textures" : [
        {
            "source" : 0
        }
    ],
    "images" : [
        {
            "mimeType" : "image/png",
            "name" : "drawer_diffuse",
            "uri" : "drawer_diffuse.png"
        }
    ],
    "accessors" : [
        {
            "bufferView" : 0,
            "componentType" : 5126,
            "count" : 186,
            "max" : [
                0.23138578236103058,
                0.6684834361076355,
                0.28495851159095764
            ],
            "min" : [
                -0.22737017273902893,
                -0.4711030423641205,
                -0.09339020401239395
            ],
            "type" : "VEC3"
        },
        {
            "bufferView" : 1,
            "componentType" : 5126,
            "count" : 186,
            "type" : "VEC3"
        },
        {
            "bufferView" : 2,
            "componentType" : 5126,
            "count" : 186,
            "type" : "VEC2"
        },
        {
            "bufferView" : 3,
            "componentType" : 5126,
            "count" : 186,
            "type" : "VEC4"
        },
        {
            "bufferView" : 4,
            "componentType" : 5123,
            "count" : 378,
            "type" : "SCALAR"
        }
    ],
    "bufferViews" : [
        {
            "buffer" : 0,
            "byteLength" : 2232,
            "byteOffset" : 0
        },
        {
            "buffer" : 0,
            "byteLength" : 2232,
            "byteOffset" : 2232
        },
        {
            "buffer" : 0,
            "byteLength" : 1488,
            "byteOffset" : 4464
        },
        {
            "buffer" : 0,
            "byteLength" : 2976,
            "byteOffset" : 5952
        },
        {
            "buffer" : 0,
            "byteLength" : 756,
            "byteOffset" : 8928
        }
    ],
    "buffers" : [
        {
            "byteLength" : 9684,
            "uri" : "drawer.bin"
        }
    ]
}
