{
    "asset" : {
        "generator" : "Khronos glTF Blender I/O v1.2.75",
        "version" : "2.0"
    },
    "scene" : 0,
    "scenes" : [
        {
            "name" : "Scene",
            "nodes" : [
                0
            ]
        }
    ],
    "nodes" : [
        {
            "mesh" : 0,
            "name" : "Ground"
        }
    ],
    "meshes" : [
        {
            "name" : "Ground",
            "primitives" : [
                {
                    "attributes" : {
                        "POSITION" : 0,
                        "NORMAL" : 1,
                        "TEXCOORD_0" : 2
                    },
                    "indices" : 3
                }
            ]
        }
    ],
    "accessors" : [
        {
            "bufferView" : 0,
            "componentType" : 5126,
            "count" : 16384,
            "max" : [
                12.00003719329834,
                1.2798787355422974,
                12.04546070098877
            ],
            "min" : [
                -12.05510425567627,
                0,
                -12.005193710327148
            ],
            "type" : "VEC3"
        },
        {
            "bufferView" : 1,
            "componentType" : 5126,
            "count" : 16384,
            "type" : "VEC3"
        },
        {
            "bufferView" : 2,
            "componentType" : 5126,
            "count" : 16384,
            "type" : "VEC2"
        },
        {
            "bufferView" : 3,
            "componentType" : 5123,
            "count" : 24576,
            "type" : "SCALAR"
        }
    ],
    "bufferViews" : [
        {
            "buffer" : 0,
            "byteLength" : 196608,
            "byteOffset" : 0
        },
        {
            "buffer" : 0,
            "byteLength" : 196608,
            "byteOffset" : 196608
        },
        {
            "buffer" : 0,
            "byteLength" : 131072,
            "byteOffset" : 393216
        },
        {
            "buffer" : 0,
            "byteLength" : 49152,
            "byteOffset" : 524288
        }
    ],
    "buffers" : [
        {
            "byteLength" : 573440,
            "uri" : "ground_a.bin"
        }
    ]
}
